<svg width="25" height="24" fill="none" xmlns="http://www.w3.org/2000/svg"><circle cx="12.5" cy="12" r="12" fill="#333"/><path d="M12.764 17.612c-.136 0-.272 0-.409-.027l-2.561-.436a2.4 2.4 0 01-1.99-2.37V10.09c0-.708.3-1.39.845-1.852.3-.246.654-.436 1.036-.518.136-.354.381-.654.654-.9a2.325 2.325 0 011.962-.517l2.561.436a2.4 2.4 0 011.99 2.37v1.145a.389.389 0 01-.164.327l-1.69 1.335c-.136.11-.3.11-.463.055-.136-.082-.245-.218-.245-.382V10.5a1.55 1.55 0 00-1.28-1.526l-2.562-.436c-.027 0-.082 0-.11-.027v4.823c0 .763.546 1.39 1.282 1.526l2.561.436c.027 0 .082 0 .109.027v-1.798c0-.136.055-.245.164-.327l1.689-1.335c.136-.11.3-.11.463-.055.136.082.245.218.245.382v1.607c0 .709-.3 1.39-.844 1.853-.3.246-.654.436-1.036.518-.136.354-.381.654-.654.9a2.566 2.566 0 01-1.553.544zm-3.297-8.91a.979.979 0 00-.273.19 1.54 1.54 0 00-.545 1.172v4.687c0 .763.545 1.39 1.281 1.526l2.562.436c.463.082.899-.054 1.253-.327.082-.082.164-.136.218-.245l-2.48-.436a2.4 2.4 0 01-1.989-2.37l-.027-4.633zm5.695 5.04v1.445a.979.979 0 00.272-.19c.355-.3.546-.736.546-1.172v-.709l-.818.627zm-4.496-6.021l2.48.436a2.4 2.4 0 011.989 2.37v.191l.845-.654v-.953a1.55 1.55 0 00-1.281-1.526l-2.562-.436a1.58 1.58 0 00-1.253.327c-.082.081-.164.136-.218.245z" fill="#fff"/></svg>