<svg width="24" height="24" viewBox="0 0 24 24" fill="none" xmlns="http://www.w3.org/2000/svg">
<path d="M16 12C15.4375 12 15 12.4688 15 13C15 13.5625 15.4375 14 16 14C16.5312 14 17 13.5625 17 13C17 12.4688 16.5312 12 16 12ZM18.5 7H18V6.5C18 5.6875 17.3125 5 16.5 5H7C5.3125 5 4 6.34375 4 8V16C4 17.6875 5.3125 19 7 19H18C19.0938 19 20 18.125 20 17V8.5C20 7.6875 19.3125 7 18.5 7ZM19 17C19 17.5625 18.5312 18 18 18H7C5.875 18 5 17.125 5 16V8C5 6.90625 5.875 6 7 6H16.5C16.75 6 17 6.25 17 6.5V7H7.5C7.21875 7 7 7.25 7 7.5C7 7.78125 7.21875 8 7.5 8H18.5C18.75 8 19 8.25 19 8.5V17Z" fill="black"/>
</svg>
